<svg xmlns="http://www.w3.org/2000/svg" width="132" height="42" xmlns:xlink="http://www.w3.org/1999/xlink"><desc>Created using Figma</desc><use fill="#0093ED" xlink:href="#a" transform="translate(1.457 4.362)"/><use fill="#00ADEE" xlink:href="#b" transform="translate(11.757 12.8)"/><use fill="#00C0ED" xlink:href="#c" transform="translate(11.757 12.8)"/><g transform="translate(22.905 1.013)"><use fill="#FFF" xlink:href="#d"/><use fill="#231F20" xlink:href="#e"/></g><use fill="#181833" xlink:href="#f" transform="translate(0 3.57)"/><use fill="#181833" xlink:href="#g" transform="translate(22.52)"/><use fill="#181833" xlink:href="#h" transform="translate(22.88 6.19)"/><use fill="#181833" xlink:href="#i" transform="translate(26.724 2.794)"/><use fill="#FFF" xlink:href="#j" transform="translate(10.782 6.214)"/><use fill="#181833" xlink:href="#k" transform="translate(11.854 7.265)"/><use fill="#181833" xlink:href="#l" transform="translate(1.302 12.44)"/><use fill="#181833" xlink:href="#m" transform="translate(53.358 7.704)"/><use fill="#181833" xlink:href="#n" transform="translate(12.045 8.65)"/><use fill="#181833" xlink:href="#o" transform="translate(9.476 35.088)"/><use fill="#FFF" xlink:href="#p" transform="translate(122.004 7.723)"/><use fill="#181833" xlink:href="#q" transform="translate(13.612 39.174)"/><defs><path id="a" fill-rule="evenodd" d="M5.644 12.248L0 9.75l4.056-3.346L3.404.79l1.78-.58S16.527-.298 17.3.268c.764.558 1.382 1.623 1.52 2.24.13.617 1.173 1.496 2.178 1.502 1.005.014 11.4-1.03 13.682-.946 2.29.083 2.704.22 3.05 2.416.336 2.197.242 3.452.242 3.452s2.8-.338 4.097-.458c1.294-.12 2.817-.123 3.11 1.09.29 1.21-2.53 18.97-2.53 18.97s.087 1.06-1.97 1.666c-2.067.61-28.536 6.307-28.536 6.307s-1.274.69-2.28-.692c-1.006-1.383-4.22-23.566-4.22-23.566v-.002z"/><path id="b" fill-rule="evenodd" d="M1.47 28.194S-.277 5.598.038 5.23C.36 4.86 1.943 4.09 1.943 4.09L33.197 0s1.248.013 1.417 1.356c.178 1.35-2.538 19.417-2.538 19.417-5.586 1.208-5.364 2.108-14.76 3.935-9.3 1.806-15.846 3.485-15.846 3.485z"/><path id="c" fill-rule="evenodd" d="M.004 6.115c-.01-.522 0-.844.035-.885.32-.37 1.903-1.137 1.903-1.137L33.197 0s1.247.013 1.417 1.356c.093.674-.577 4.98-1.263 9.122-10.16.742-15.59-.86-15.59-.86C21.57 11.64 27.78 12.77 32.93 12.94c-.092.57-.188 1.11-.274 1.633-4.43 1.192-10.01 1.237-15.957-.143C10.004 12.876 4.116 9.816 0 6.115h.004z"/><path id="d" fill-rule="evenodd" d="M0 13.81s1.252-6.945 1.804-8.776c.553-1.84 1.29-4.16 1.29-4.16L23.116 0l-1.453 5.98s1.106-.33 1.723.145c.616.475 1.076 2.498 1.076 2.498l-3.09.09-.13 3.025L0 13.808z"/><path id="e" d="M0 13.81h-.108v1.207l.214-1.19L0 13.81zm1.804-8.776l.103.03-.103-.03zm1.29-4.16L3.09.766 3.013.77 2.99.84l.104.034zM23.116 0l.105.025.035-.14-.144.007.006.108zm-1.453 5.98l-.105-.025-.044.182.18-.053-.03-.104zm1.723.145l.066-.086-.066.085zm1.076 2.498l.003.108.13-.003-.028-.128-.105.023zm-3.09.09l-.003-.108-.102.003-.004.1.108.005zm-.13 3.025l.01.107.094-.01.004-.092-.108-.005zM0 13.808l-.01-.107-.098.01v.098H0zm0 0l.106.02v-.005c.002-.003.003-.008.004-.015l.01-.058c.01-.05.023-.127.04-.224l.15-.81c.126-.68.3-1.605.49-2.587.383-1.966.833-4.154 1.107-5.065L1.7 5.003c-.277.92-.73 3.12-1.11 5.085-.192.982-.366 1.908-.492 2.588l-.15.812-.04.223-.01.06-.003.015v.004l.105.02zm1.907-8.743c.277-.92.6-1.96.852-2.77l.313-.997c.04-.123.07-.22.09-.288L3.19.933c0-.01.003-.015.005-.02V.908h.002L3.094.873 2.99.84V.85c-.002.004-.005.01-.007.02l-.025.077-.09.288c-.08.246-.188.594-.315 1-.253.81-.576 1.85-.852 2.77l.207.062zM3.1.982L23.12.108l-.01-.216L3.09.766l.01.216zM23.01-.026l-1.452 5.98.21.052L23.22.026l-.21-.052zM21.664 5.98l.03.104h.003c.002-.002.005-.002.01-.004l.033-.01.127-.028c.112-.023.262-.05.433-.06.347-.023.744.016 1.02.23l.132-.173c-.34-.263-.805-.297-1.166-.273-.182.012-.347.04-.463.063-.058.012-.106.024-.138.032l-.038.01-.01.003h-.004v.002l.03.103zm1.657.23c.134.104.27.3.398.554.127.252.24.542.335.823.095.28.17.544.223.74l.06.234.016.065c0 .007.003.013.003.017v.004h.002l.105-.023.105-.024v-.003-.004l-.005-.018c-.004-.015-.01-.037-.016-.066l-.06-.238c-.054-.198-.132-.47-.23-.755-.096-.284-.214-.59-.346-.85-.13-.26-.284-.493-.458-.628l-.132.17zm1.14 2.305l-3.09.09.005.216 3.09-.09-.006-.215zm-3.196.193l-.13 3.025.216.01.13-3.025-.216-.01zm-.032 2.922L-.01 13.7l.02.216 21.242-2.07-.02-.216zm-21.34 2.178h.216-.216z"/><path id="f" d="M7.537 12.38l2.72 15.01.002.006.895 5.456c.203 1.184.572 3.035 1.05 3.565-.005-.198-.02-.448-.03-.758-.126-2.423-1.376-18.56-1.383-18.605-.023-.267-.287-3.712 2.336-4.615h.01l.007-.01c.354-.122 1.21-.277 2.417-.472 1.22-.188 2.747-.4 4.436-.624 2.425-.325 5.274-.677 8.144-1.024l13.9-1.617c1.163-.127 1.905-.21 2.052-.228.485-.056 1.01-.077 1.515.04.614.13 1.154.45 1.5 1.086h-.004l.002.003v.002c.42.78.292 1.622.187 2.335-.008.085-.023.168-.042.307-.51 4.067-2.418 16.68-2.563 17.456-.02.225-.225 1.883-1.845 2.34-1.287.37-28.83 6.275-28.83 6.275s-1.664-.553-2.328-1.06c-.714-.54-1.52-2.387-1.837-3.825l-.355-1.844-.655-4.058L6.25 13.23 0 10.623l4.905-3.75c-.146-.738-.452-2.307-.66-3.637C3.87.84 4.86.404 6.355.288c.258-.02.498-.023.746-.027.2-.01.403-.012.467-.014 1.414-.06 3.18-.1 4.86-.14.947-.02 1.87-.042 2.804-.066h.003c.055-.002.212-.005.368-.017 1.73-.06 3.99-.144 4.84 1.778.13.29.214.53.297.76.35.945.63 1.68 2.843 1.52.374-.026.843-.063 1.375-.104-.085.454-.442.98-.506 1.498l-.645.045c-3.375.245-3.83-.985-4.42-2.565-.083-.23-.17-.474-.255-.665-.408-.92-2.084-.86-3.36-.815-.102.002-.188.005-.37.016h-.013c-.728.023-1.752.045-2.812.067-1.727.04-3.55.08-4.826.13-.26.014-.377.016-.49.018-.25.012-.493.017-.68.03-.656.048-1.09.255-.915 1.398.28 1.744.736 3.984.736 3.99l.09.42-4.1 2.867 5.146 1.974v-.003zm6.078 23.335c.017.294.247.746.013.8 26.222-5.833 27.862-6.12 28.9-6.412.85-.245.908-1.194.908-1.196v-.03l.014-.046c.004-.034 1.835-12.633 2.368-16.893.013-.065.033-.2.052-.33.07-.495.153-1.084-.018-1.416h-.004c-.08-.147-.24-.23-.43-.27-.306-.074-.69-.055-1.054-.015-.72.08-15.143 1.68-24.06 2.867-1.77.23-3.298.45-4.408.62-1.124.18-1.893.323-2.18.413l-.013.01H13.7c-1.744.6-1.47 3.224-1.466 3.228l.005.02c.002.043 1.25 16.118 1.377 18.645v.008h-.002z"/><path id="g" d="M.02 15.568v-.018c-.018-.083-.022-.233-.02-.44 0-.183.012-.41.02-.67.285-4.046 1.51-9.683 3.173-13.285L24.663 0c-.69 1.688-1.643 4.943-1.92 6.746l-1.28.022c.167-1.115.895-4.06 1.293-5.306L4.133 2.608c-.3.72-1.53 4.152-1.983 6.27-.432 2.01-.633 4.436-.692 5.748-.007.266-.012.472-.013.615 0 .093-.01.143-.01.164v.014l-.5.046-.916.103zm22.284-5.973c-.102 1.093-.175 2.116-.157 3.078l-1.27.146c-.01-.903.127-2.11.164-3.137l1.264-.087z"/><path id="h" d="M0 8.827c0-.01.664-5.118 2.347-6.647.382-.335.793-.613 1.283-.72.3-.068.655-.065.97-.09C7.384 1.147 20.604.017 23.082 0c1.322.106 2.81 1.804 1.433 4.026h-.02L6.035 5.78l-.986.09.124-.844c.077-.826.003-1.13-.19-1.542-.115-.22-.245-.4-.403-.51-.12-.083-.23-.12-.406-.12-1.97.18-2.545 4.753-2.75 6.287L0 8.827zm5.777-6.094c.05.078.09.155.12.228.2.406.71.85.648 1.328L23.63 2.65c.145-.558-.024-1.266-.548-1.46-2.202.048-10.008.923-14.847 1.34-.79.074-1.505.135-2.1.18l-.36.024h.002z"/><path id="i" fill-rule="evenodd" d="M.715 1.064L16.69 0l-.27.837L.473 1.9l.242-.835zM.24 2.784l15.973-1.066-.273.837L0 3.612l.24-.827"/><path id="j" fill-rule="evenodd" d="M2.715 0c1.5 0 2.72 1.297 2.72 2.908 0 1.602-1.222 2.9-2.72 2.9C1.215 5.808 0 4.51 0 2.908 0 1.298 1.214 0 2.714 0z"/><path id="k" fill-rule="evenodd" d="M1.706 0c.12 0 .234.016.342.038-.082.12-.127.263-.127.414 0 .384.29.694.646.694.24 0 .448-.132.565-.336.186.29.293.64.293 1.024 0 1.007-.772 1.826-1.716 1.826C.764 3.66 0 2.84 0 1.834 0 .82.763 0 1.706 0z"/><path id="l" d="M.47 2.105c-.34-.088-.54-.438-.447-.78.09-.336.44-.538.783-.44H.81c.068.012.183.028.325.043.155.007.353.01.582.007C2.9.915 4.683.665 5.875.07c.31-.16.697-.034.856.286.153.31.027.696-.285.848-1.387.694-3.39.98-4.706 1.004-.254.002-.494 0-.703-.01-.224-.02-.412-.052-.556-.083H.48l-.008-.01z"/><path id="m" d="M9.177 7.376c1.27 0 2.47.23 3.6.688 1.13.458 2.112 1.085 2.948 1.878.835.794 1.494 1.722 1.977 2.784.482 1.062.724 2.196.724 3.403v8.383h-3.07v-1.88c-.825.694-1.76 1.237-2.807 1.627-1.048.39-2.17.587-3.37.587-1.273 0-2.46-.23-3.567-.688-1.106-.46-2.077-1.08-2.912-1.86-.835-.785-1.494-1.707-1.976-2.77C.242 18.47 0 17.335 0 16.128c0-1.207.242-2.342.725-3.403.482-1.06 1.14-1.99 1.977-2.783.835-.792 1.806-1.42 2.912-1.877 1.105-.458 2.294-.688 3.564-.688zm0 2.885c-.847 0-1.647.15-2.4.454-.753.302-1.407.72-1.96 1.258-.552.537-.994 1.163-1.323 1.877-.33.715-.494 1.475-.494 2.28 0 .804.166 1.564.495 2.28.33.715.77 1.335 1.324 1.86.55.525 1.204.945 1.957 1.26.752.31 1.553.47 2.4.47.87 0 1.682-.16 2.436-.47.753-.315 1.406-.734 1.96-1.26.552-.525.987-1.145 1.305-1.86.317-.716.475-1.476.475-2.28 0-.806-.158-1.565-.476-2.28-.32-.716-.754-1.34-1.307-1.878-.553-.537-1.206-.956-1.96-1.258-.753-.303-1.564-.453-2.435-.453h.002zm16.097 14.286h-3.036v-8.384c0-1.207.258-2.347.775-3.42s1.224-2 2.118-2.783c.895-.784 1.937-1.404 3.125-1.86 1.188-.46 2.465-.69 3.83-.69v2.884c-.94 0-1.824.15-2.647.453-.824.302-1.548.72-2.17 1.258-.625.538-1.113 1.164-1.466 1.88-.354.715-.53 1.475-.53 2.28v8.382h.002zm17.225.235c-1.27 0-2.46-.23-3.565-.687-1.106-.458-2.077-1.08-2.912-1.862-.835-.78-1.494-1.704-1.977-2.766-.482-1.06-.724-2.195-.724-3.403 0-1.206.24-2.34.724-3.402.482-1.062 1.142-1.99 1.977-2.784.835-.793 1.806-1.42 2.912-1.878 1.106-.458 2.295-.688 3.565-.688.99 0 1.954.218 2.896.654.942.436 1.8 1.023 2.577 1.76l-2.118 2.013c-.518-.47-1.06-.843-1.624-1.123-.562-.28-1.14-.42-1.727-.42-.847 0-1.647.152-2.4.454-.753.303-1.406.722-1.96 1.258s-.993 1.163-1.323 1.878c-.33.716-.494 1.476-.494 2.28 0 .804.164 1.565.493 2.28.33.716.77 1.336 1.322 1.86.553.526 1.206.946 1.96 1.26.754.314 1.553.468 2.4.468.587 0 1.164-.134 1.728-.402.566-.27 1.107-.648 1.625-1.14l2.118 2.012c-.776.738-1.636 1.32-2.577 1.744-.94.424-1.907.64-2.895.64v-.003zM57.96 7.41c.966 0 1.877.18 2.737.537.858.358 1.605.838 2.24 1.442.636.603 1.142 1.312 1.52 2.13.375.814.563 1.68.563 2.597v10.43h-3.035v-10.43c0-.537-.105-1.034-.317-1.492-.212-.457-.5-.86-.864-1.207-.365-.346-.79-.62-1.27-.82-.48-.2-1.007-.303-1.57-.303-.563 0-1.095.1-1.59.302-.494.2-.924.475-1.288.82-.365.348-.653.75-.865 1.21-.21.457-.315.955-.315 1.49v10.43H50.87V0h3.034v8.585c.54-.38 1.165-.67 1.87-.872.705-.202 1.434-.302 2.188-.302zm10.66.37h3.037v16.766H68.62V7.78zm6.284 0h3.036v16.766h-3.035V7.78z"/><path id="n" d="M.14 30.827s-.02.636-.125.676c-.105.04.387-.24.387-.24l-.263-.436zM16.435.88l.456 1.355 1.396.684-.985.096.125-.844c.078-.834.003-1.14-.19-1.55-.107-.213-.244-.394-.403-.51-.11-.085-.397-.112-.397-.112v.88h-.002z"/><path id="o" d="M0 0c1.023 6.408 1.085 7.666 5.924 6.546 4.84-1.114 4.7-1.384 4.7-1.384l-3.206.578-2.685.47-1.107-.25L1.7 5.108.92 3.283 0 0z"/><path id="p" d="M6.256 0h3.05v3.904h-3.05V0zM0 0h3.048v3.904H0V0z"/><path id="q" d="M0 0s0 .036.006.086c.04.22.19.785.795.65.74-.165-.8.672-.8.672"/></defs></svg>